/* XPM */
static char *_628328082940[] = {
/* columns rows colors chars-per-pixel */
"7 7 7 1 ",
"  c black",
". c #370B06",
"X c #6E260C",
"o c #7C3C09",
"O c #95500E",
"+ c #B58B11",
"@ c None",
/* pixels */
"@XXXXOO",
"XXX..XX",
"...... ",
".X..   ",
"XX.  oo",
"XX. ooo",
"XX  oo+"
};
