/* XPM */
static char *_54a181377d34bbdf1eb11755bf08cb0DE0i5yoJZEYmYBmm[] = {
/* columns rows colors chars-per-pixel */
"49 50 161 2 ",
"   c None",
".  c #231E3E",
"X  c #25213F",
"o  c #2A213F",
"O  c #3D223F",
"+  c #51253F",
"@  c #5A253F",
"#  c #262242",
"$  c #2B2342",
"%  c #2C2A47",
"&  c #292649",
"*  c #2C2A49",
"=  c #312443",
"-  c #3D2442",
";  c #332847",
":  c #3C2845",
">  c #372C48",
",  c #3C2C49",
"<  c #2D2855",
"1  c #2E275A",
"2  c #2F295B",
"3  c #302F53",
"4  c #30275A",
"5  c #31295B",
"6  c #362F6A",
"7  c #3B2F6B",
"8  c #363363",
"9  c #3B3C66",
"0  c #38306E",
"q  c #3D3D6B",
"w  c #3C3376",
"e  c #3D3679",
"r  c #3F3879",
"t  c #442542",
"y  c #4D2743",
"u  c #442947",
"i  c #4C2C45",
"p  c #442C48",
"a  c #4B2D49",
"s  c #522742",
"d  c #5C2641",
"f  c #552943",
"g  c #5D2943",
"h  c #53294C",
"j  c #41314C",
"k  c #4F314A",
"l  c #533046",
"z  c #54324A",
"x  c #5B354B",
"c  c #54384F",
"v  c #432A56",
"b  c #563255",
"n  c #5B3750",
"m  c #5D3B51",
"M  c #622A44",
"N  c #6C2B44",
"B  c #683046",
"V  c #64344A",
"C  c #6B344A",
"Z  c #6C3C4E",
"A  c #75354A",
"S  c #78374B",
"D  c #733B4D",
"F  c #79394D",
"G  c #6E3D50",
"H  c #733F51",
"J  c #7A3F51",
"K  c #4B3B66",
"L  c #4D3F68",
"P  c #413A7A",
"I  c #3F406D",
"U  c #754153",
"Y  c #7D4353",
"T  c #41416E",
"R  c #484369",
"E  c #444372",
"W  c #484672",
"Q  c #4E4E75",
"!  c #514F75",
"~  c #545176",
"^  c #5E5A77",
"/  c #545178",
"(  c #5F5C7A",
")  c #615E7C",
"_  c #615C7B",
"`  c #67647D",
"'  c #67647D",
"]  c #6A657F",
"[  c #6B667E",
"{  c #68647D",
"}  c #834756",
"|  c #874757",
" . c #824354",
".. c #8A4757",
"X. c #8A4857",
"o. c #8B4857",
"O. c #864958",
"+. c #874A59",
"@. c #844858",
"#. c #8F4D5B",
"$. c #8D4958",
"%. c #934F5C",
"&. c #96515E",
"*. c #463E87",
"=. c #463E88",
"-. c #484584",
";. c #4F5187",
":. c #56558A",
">. c #52538D",
",. c #4C4790",
"<. c #4F4B92",
"1. c #504D93",
"2. c #535490",
"3. c #5B5696",
"4. c #5C5896",
"5. c #58579D",
"6. c #5B5E9C",
"7. c #605B87",
"8. c #605B88",
"9. c #5D619C",
"0. c #6A6780",
"q. c #666199",
"w. c #686399",
"e. c #6E6E9D",
"r. c #6F699B",
"t. c #706A9C",
"y. c #70719F",
"u. c #7F7C9D",
"i. c #5F61A6",
"p. c #6062A7",
"a. c #6365AA",
"s. c #666AAE",
"d. c #696CAF",
"f. c #6E70A0",
"g. c #7171A1",
"h. c #7574AC",
"j. c #676BB0",
"k. c #696DB1",
"l. c #807D9E",
"z. c #8280A3",
"x. c #8583A5",
"c. c #8483A6",
"v. c #8483A6",
"b. c #8685A8",
"n. c #8886A9",
"m. c #928FAB",
"M. c #918EAA",
"N. c #9390AB",
"B. c #9490AB",
"V. c #9592AD",
"C. c #8182B7",
"Z. c #8A87B3",
"A. c #8B88B3",
"S. c #8383B8",
"D. c #9793B7",
"F. c #9793B8",
"G. c #9996BB",
"H. c #9B99BF",
"J. c #9C99C0",
"K. c #ABA7C6",
"L. c #ACA8C6",
/* pixels */
"                        = o % K >.e.c.M.m.m.m.x.e.y.z.u.:.P w w w 7 4 o o $                       ",
"                        z x i K :.f.c.N.N.N.m.v.y.y.v.u.7.P w w 7 P v t t t                       ",
"                    O x U U B b L ! ) { 0.0.[ ) / / ) ^ R 5 4 5 5 v h g d f t =                   ",
"                    c U @.| D f y p p j > > p p u u p p ; = - t u y s M M M s t                   ",
"                > x U O.%.Y V f d d g + O t + d d M d s - - s g d d y s M M M s t =               ",
"                z U O.#.+.U U V C A M g x V D F F S N M s y f M M M s s d M N M s t               ",
"            = z U @.#.@.U Z U } O.Y V x D } | o.o. .A M d y y + M N M s y s M N M s t o           ",
"            o i U Y Y Z k k G Y Y D i i Z Y Y  .Y F N d @ + O + + @ d + O O + @ @ + O .           ",
"            % > c n n z , , k n x c j j c m m m n n k a p : ; ; : u u u ; ; : p p : ; &           ",
"            P R E E E E E E W W E ! ) { [ { { ) ~ ~ ( ( ~ E T E E E E E T P E E E E T I           ",
"        * I >.6.6.6.6.9.9.6.6.6.9.f.n.B.V.V.N.b.y.y.b.b.g.9.6.6.6.6.6.6.6.6.6.6.6.6.6.>.I *       ",
"        & q >.p.s.d.k.j.j.j.j.j.k.C.H.L.L.L.L.H.C.C.H.H.C.k.j.d.j.k.k.j.k.d.d.k.d.d.p.2.q &       ",
"        & 8 -.5.a.d.k.k.j.k.j.j.k.C.H.K.L.L.L.H.S.C.H.H.C.k.k.k.k.k.k.k.k.k.k.k.d.a.5.-.8 &       ",
"        # 5 e <.5.i.p.p.i.p.a.i.a.h.A.D.D.G.D.A.h.h.Z.Z.h.a.i.a.p.i.i.p.i.p.p.i.p.5.,.e 5 &       ",
"        & 5 w =.,.<.1.1.<.<.<.<.1.3.q.r.t.t.r.q.4.3.q.q.3.1.<.<.1.<.<.<.<.<.1.1.<.,.*.w 5 #       ",
"        # < 6 w e e e e e e e e e P P P P P P P r r P P r r w r e e e e e e e e e P w 6 < #       ",
"        # & < 2 2 2 4 4 5 5 5 2 4 1 1 1 2 2 2 1 5 5 4 4 1 2 2 2 2 6 1 4 4 4 4 4 4 8 1 < & $       ",
"        # # # # # # # = - t t - = # # # # = : t u t t - ; # & # # = O t u - & # # # # # # X       ",
"    # X # # . # # # $ - s g M @ O o # # o O + g g M g s O $ # # # O s d g s - o # o # . X # . #   ",
"    # X # $ - - = $ : f C A N M s - = $ - s M N A A N M s O $ $ O s M N N M s - $ $ - - $ # # #   ",
"    # # $ t s s t - f C  . .S N M s - - s M N F  . .S N M s - t + M N N N N M s - t s y - $ # #   ",
"    $ o : s d g t y C  .$.o. .S N g t t g N S  .$.$. .S N g t t d N N N N N N d t t d M s - = .   ",
"    $ - s M N g t z J $.&.%.o. .A M t t M A  .o.%.%.$. .A M t t d N N N N N N M t t M N M s - #   ",
"    $ y V F F C i x } %.&.&.&.o.F M t t M F o.&.&.&.%...S M t t M N N N N N N d t t d N N d t o   ",
"    $ x Y o.$.J x x } &.&.&.&.o.F g t - M F o.&.&.&.&.$.S M t t g N N N N N N d t y d N N d t X   ",
"    $ x Y &.%.} x n } &.&.&.&.o.F f + + g F $.&.&.&.&.$.S M + t d N N N N N N d t t g N N g t $   ",
"    $ x } &.&.} V x Y &.&.&.&.o.F g t t M F $.&.&.&.&.$.F g t t d N N N N N N M t t g N N d t o   ",
"    = x @.&.&.Y n x } &.&.&.&.#.F g t t M F o.&.&.&.&.%.F d + t M N N N N N N M t t g N N M t $   ",
"    $ x Y &.&.} x x @.&.&.&.%.o.F M t t M S o.%.&.&.%.o.F g t t g N N N N N N g t t M N N d t X   ",
"    $ a U +.&.Y x z Y $.&.%.$. .F g t t M A  .$.%.%.$. .A g t t g N N N N N N g t t d N M y - #   ",
"    # : k U @.Y x i B J $.$. .S B g t t d N S  .$.$. .S B g t t d N N N N N N d t t d g y - o #   ",
"    # # & k U U k t d A  . .F N M s - - @ M N S  . .S N M s - t s M N N N N M s - - f s + $ # #   ",
"    # # # : p k : o - f C A N M s - $ $ - s M N A A N M s - $ o t s g N N M s - $ = - - $ X # X   ",
"    # X # # o o X X o - s M d + - . . . . O s d M M @ + O # X X o O + g M s O o . . X $ X # # #   ",
"        # # # # % & % % : p p t ; & % % = > p p u u a u ; & * # & = : p t : ; & & & & # # #       ",
"        # 3 q E T E I E E E E E W Q _ 0.{ { ' ( ~ ~ ^ ( Q E E E E E E E E E E E E E T 9 3 #       ",
"        % 9 ;.6.6.6.6.6.6.6.6.6.p.g.n.V.V.V.V.b.g.g.c.b.g.9.6.6.6.6.6.6.6.6.6.6.6.6.6.;.9 &       ",
"        & q 2.i.d.k.k.k.k.d.d.d.k.l.J.L.L.K.K.H.C.C.H.H.S.k.d.d.k.k.d.k.d.k.k.k.d.s.i.>.q &       ",
"        # 8 -.5.p.k.k.k.k.k.k.k.k.C.J.K.L.L.K.J.S.S.H.H.S.d.k.k.k.k.k.k.k.k.k.k.k.a.5.-.8 &       ",
"        # 5 r <.5.p.p.p.p.p.p.i.a.h.A.D.G.G.F.Z.h.h.A.A.h.a.p.p.p.p.p.p.p.p.p.p.p.5.<.e 5 #       ",
"        # 2 w -.,.1.1.1.1.1.1.1.1.3.w.r.t.t.r.q.3.3.q.w.4.1.<.<.1.1.1.1.1.1.1.1.<.<.*.w 2 #       ",
"        & 1 0 e e e e e e e e e e e P P P P e w P e P P r e r r e e e e e e e e e e w w 2 #       ",
"            2 5 5 5 5 4 5 1 4 5 4 5 4 1 1 1 1 6 4 5 4 4 2 2 2 5 5 5 1 4 5 5 5 5 2 5 5 2           ",
"            # # # = : t u - = = - t t : ; = - t t t t : = $ - t t - = = : t t - = # # #           ",
"                o - s M g s t - s g g f - t s g M g g s O - s g g s t - s d g s - o               ",
"                $ - f M A C f y d M A C f y f M A A B s y s M N g s y s M N M s - &               ",
"                    t V J J C f s x J Y C d y V J Y V y f M N M s y s M M M s t                   ",
"                    = z J J C s - k Z J V s - k G G h - s f d s t - s g M s t $                   ",
"                        x z i t = - z z y - o u k k : o u + t - $ = - t t t                       ",
"                        $ % $ o # # $ $ $ $ # o $ $ o X # X $ X . o $ # $ $                       "
};
