/* XPM */
static char *_88fca40414f4f04c1325a38d8a2f1d3euui4bEABZDjmyNc[] = {
/* columns rows colors chars-per-pixel */
"50 49 205 2 ",
"   c None",
".  c #1A1A3F",
"X  c #211D3E",
"o  c #24213F",
"O  c #36233F",
"+  c #1E1C40",
"@  c #191740",
"#  c #211E41",
"$  c #252241",
"%  c #2B2442",
"&  c #2D2942",
"*  c #272448",
"=  c #29254B",
"-  c #2F2C4A",
";  c #332341",
":  c #3A2542",
">  c #322D43",
",  c #35264B",
"<  c #3B264A",
"1  c #372A49",
"2  c #3B3645",
"3  c #2C2751",
"4  c #2D2954",
"5  c #2F295A",
"6  c #312B5F",
"7  c #3D2E52",
"8  c #3A3652",
"9  c #37375F",
"0  c #3B3958",
"q  c #332D64",
"w  c #362E6A",
"e  c #383762",
"r  c #3C3B62",
"t  c #37306B",
"y  c #39326B",
"u  c #3C3B6C",
"i  c #363264",
"p  c #3B3376",
"a  c #3E357B",
"s  c #3F387B",
"d  c #3E3C73",
"f  c #342D69",
"g  c #432542",
"h  c #4A2642",
"j  c #4D2A43",
"k  c #432E4C",
"l  c #532642",
"z  c #532C45",
"x  c #5D2943",
"c  c #483946",
"v  c #563047",
"b  c #5C334A",
"n  c #583646",
"m  c #4D3856",
"M  c #573952",
"N  c #642A44",
"B  c #6C2B44",
"V  c #6D3349",
"C  c #68374A",
"Z  c #753C47",
"A  c #75344A",
"S  c #763D49",
"D  c #7A3A4D",
"F  c #763847",
"G  c #7B3E50",
"H  c #40367D",
"J  c #403A7B",
"K  c #403B66",
"L  c #3F406F",
"P  c #494148",
"I  c #574B4C",
"U  c #5C534D",
"Y  c #5C445D",
"T  c #68484A",
"R  c #63474A",
"E  c #63574E",
"W  c #79544E",
"Q  c #7C4152",
"!  c #685A55",
"~  c #684F57",
"^  c #6C6252",
"/  c #776754",
"(  c #7F7459",
")  c #484664",
"_  c #4D4B65",
"`  c #474565",
"'  c #504D6B",
"]  c #59566E",
"[  c #54526A",
"{  c #454575",
"}  c #49467C",
"|  c #5D5A72",
" . c #555479",
".. c #645770",
"X. c #64617A",
"o. c #813F51",
"O. c #814248",
"+. c #994D4C",
"@. c #86534D",
"#. c #854454",
"$. c #8D4958",
"%. c #8A4756",
"&. c #A2534E",
"*. c #AC554F",
"=. c #A45850",
"-. c #B55A51",
";. c #BB5E52",
":. c #986654",
">. c #87795B",
",. c #8E7158",
"<. c #BC6254",
"1. c #BD6957",
"2. c #B46755",
"3. c #A5735A",
"4. c #AF7E5E",
"5. c #B87E5E",
"6. c #A16E57",
"7. c #C26A57",
"8. c #C36E59",
"9. c #C5745B",
"0. c #C37C5E",
"q. c #CC7A5E",
"w. c #CB7F60",
"e. c #93825F",
"r. c #B1805F",
"t. c #968962",
"y. c #A78B63",
"u. c #AD9D6B",
"i. c #A29367",
"p. c #BA9869",
"a. c #BE8260",
"s. c #BDA570",
"d. c #CB8261",
"f. c #CC8A64",
"g. c #C48562",
"h. c #D38562",
"j. c #D38B65",
"k. c #D88F66",
"l. c #C89C6B",
"z. c #D39B6C",
"x. c #DC9C6C",
"c. c #D99268",
"v. c #E09F6E",
"b. c #DAA26F",
"n. c #C2AE74",
"m. c #DCAA72",
"M. c #D1A470",
"N. c #CCB376",
"B. c #C4B276",
"V. c #DDB678",
"C. c #CDA06E",
"Z. c #E4AA73",
"A. c #ECBF7D",
"S. c #E4BA7A",
"D. c #D6C27E",
"F. c #EFC07D",
"G. c #403781",
"H. c #433985",
"J. c #463D89",
"K. c #4B4C82",
"L. c #474089",
"P. c #49438D",
"I. c #4B498C",
"U. c #484586",
"Y. c #4F5186",
"T. c #575889",
"R. c #4E4B92",
"E. c #4C4690",
"W. c #514E95",
"Q. c #5B5C9C",
"!. c #575796",
"~. c #544E83",
"^. c #605C94",
"/. c #6D6B84",
"(. c #686688",
"). c #726F89",
"_. c #76738D",
"`. c #78758E",
"'. c #6B6993",
"]. c #7E7B94",
"[. c #787495",
"{. c #716E90",
"}. c #5C5DA3",
"|. c #5F61A2",
" X c #6363A4",
".X c #6C6CA6",
"XX c #7373AB",
"oX c #7373A6",
"OX c #7D7EB4",
"+X c #807C96",
"@X c #7F80B7",
"#X c #87849E",
"$X c #8986A3",
"%X c #8583AB",
"&X c #8C8AAC",
"*X c #8784A7",
"=X c #8B88B5",
"-X c #9D99B9",
";X c #9895B8",
":X c #908EB3",
">X c #E2CB83",
",X c #E9D387",
"<X c #F6D98A",
"1X c #FCE791",
"2X c #9896C0",
/* pixels */
"                                            ] | | | | | ]                                           ",
"      $ $ $ $ $ $ $ $ $ $ $ $ $ $ & $ o 8 X.].#X$X$X$X*X[.] - X $ $ $ $ $ $ $ $ $ $ $ $ $ $ $ $     ",
"  _ _ ) r 9 9 9 9 e 9 e 9 9 9 9 9 r 9 4 0 X.*X;X-X2X-X;X].] 8 4 9 9 9 e 9 9 9 9 r 9 9 9 9 e ` _ [   ",
"_ /._.{.^.T.Y.Y.Y.Y.Y.Y.Y.Y.Y.Y.Y.Y.} L 9  .{.%X:X:X:X+X'.' e { Y.Y.Y.Y.Y.Y.Y.Y.Y.Y.Y.Y.I.Y.(.{._.X.",
"_ _.&X%XoX|.|.|.|.|.|.|.|.}.}.'.|.|.Q.K.e L ~.'..XXX.X!.} r K T.|.|.|.|.|. XQ. X|.|.|.|.|. XXX&X$X/.",
"` {.=X=XoX|.}.}.}.}.}.}.}.}.}.}.|.|.Q.I.e 5 a P.!.Q.W.L.y 6 u R.Q.|.}.}.}.}.}.}.|.|.}.|.}. XXX=X%X(.",
"K ^.oX.XQ.R.R.R.R.R.R.R.R.R.I.R.I.R.I.L i 5 p H.J.E.L.G.w 5 i U.I.R.R.R.R.R.I.W.R.R.R.R.R.W. XXX.X .",
"0 } Q.!.W.J.J.H.G.s s a a a H H s s p q 4 4 t p a a a p w 4 4 t p s s p a a a H s s G.H.J.L.W.Q.!.{ ",
"4 d I.I.L.H.H.H p q q 6 6 6 6 6 6 6 6 3 * * 5 6 5 q 5 q 3 = = 5 5 q 6 6 6 5 6 6 6 f p G.H.H.P.E.U.u ",
"4 y G.J.H.H.H p q = * * * = * * * * * * * % * * * * * * * $ $ * * * * * * * * * * 4 w p H.H.H.H.s i ",
"3 w s H.H.H p q 3 * o # o $ $ o o o % o $ o o $ $ o $ o o $ $ $ o $ o $ # $ $ # $ * 5 f p H.H.H.p q ",
"3 w G.H.H.p q 3 * $ $ $ $ $ $ $ $ o o $ $ $ $ $ $ $ $ $ $ $ $ $ $ $ $ $ $ $ $ $ $ $ * 4 t a H.H.a q ",
"3 w G.H.H.p 6 * o $ $ $ $ $ $ $ $ $ $ $ o $ $ $ $ $ $ $ $ $ $ $ $ $ $ $ $ $ $ $ $ $ $ 3 q a H.H.p q ",
"3 w G.H.H.p 6 * o $ $ $ $ $ o $ $ $ $ $ $ $ $ $ $ o $ $ $ $ $ $ $ $ $ $ $ $ $ $ $ $ $ = f a H.H.a q ",
"3 q a H.H.p q * o $ $ $ $ $ $ $ $ $ $ $ $ $ $ $ $ $ $ $ $ $ $ $ $ $ $ $ $ $ $ $ $ $ + 3 f G.H.H.p q ",
"3 w G.H.H.p 6 * o $ $ $ $ $ $ $ $ $ $ $ $ $ $ $ $ $ $ $ $ $ $ $ $ $ $ $ $ $ $ $ $ $ $ = f a H.H.a q ",
"3 w H H.J H 6 * o $ $ $ $ o $ $ o $ $ $ $ $ $ $ $ $ $ $ $ $ $ $ $ o $ $ $ $ $ $ $ $ $ = f a H.H.a q ",
"3 w H H.H.p 6 % o $ $ $ $ $ $ $ $ $ $ $ $ $ $ $ $ $ $ $ $ $ $ $ $ $ $ $ $ $ o $ $ $ $ = f a H.H.a q ",
"3 w H H.H.p 6 = $ $ $ $ $ $ $ $ $ $ $ $ $ # # # $ $ $ # # # # $ $ $ $ $ $ $ $ $ $ $ $ = f a H.H.p q ",
"3 w H H.H.H 6 = o $ $ $ $ $ $ $ $ $ $ $ $ # # # # # # # # + # # $ $ $ $ $ $ $ $ $ $ $ 3 f G.H.H.a q ",
"3 w H H.H.H 6 * o $ $ $ $ $ $ $ $ $ $ $ % c I I P 2 P U U U U 2 o o $ $ $ $ $ $ $ $ $ 3 f s H.H.p q ",
"3 w H H.H.p 6 * $ $ $ $ $ $ $ $ % o # + 2 ^ t.t./ U ( i.u.u.t.^ 2 . # $ $ $ $ $ $ $ $ = w a H.H.a q ",
"3 w H H.H.p 6 * o $ $ $ $ $ $ $ $ $ $ . P e.s.B.i.( u.>X,X>XB.t.U > $ $ $ $ $ $ $ $ $ = w a H.H.p q ",
"3 w G.H.H.p 6 * o $ $ $ + + + . $ $ . . P e.N.V.s.i.N.,X1X1X,Xs.e.! 2 . $ $ $ o # # # = q a H.H.p q ",
"3 w H H.H.p q # $ $ $ % & > > & $ o o o P ,.l.m.z.z.S.<X1X1X<X,XN.t.U & $ $ o % & & O = w p H.H.p q ",
"= q p p p w 5 = o $ $ > U / / U > . O z W 3.f.x.c.x.Z.<X<X1X<X<X>Xs.t.E 2 # o k R R n 7 5 p p p t 6 ",
"* 4 q q q 6 3 # o X X P >.u.u.>.P o 2 W 3.g.k.k.j.j.b.S.A.F.A.A.A.S.n.t.E $ ; T :.:.@.m 3 6 q q 6 3 ",
"- 0 ) ' ' ) 8 = o o O T t.N.N.y./ E ,.3.g.j.k.k.j.j.k.x.v.v.v.v.Z.>XV.s.>.R T :.a.a.:.I 0 ` [ _ ) 8 ",
"m | _.+X+X/.[ > o O n @.4.C.M.p.r.y.p.l.f.d.h.k.b.m.z.j.q.h.h.v.v.Z.m.l.5.3.3.5.f.f.6.~ | ).+X+X).[ ",
") ).:X-X;X#XX.8 O n O.&.2.9.w.f.z.V.V.V.f.7.7.f.Z.S.m.q.7.8.9.h.k.j.d.f.f.f.f.j.c.f.:.! /.&X-X;X$X(.",
"` {.:X2X2X+XX.m N O.+.-.;.<.7.q.c.m.S.b.q.;.<.0.b.V.z.9.;.;.7.q.w.9.7.9.w.j.h.j.d.9.:.~ (.=X;X;X*X(.",
"L T.XXOXOX.X .M D +.*.-.-.-.;.1.9.d.g.0.1.-.-.1.g.g.9.7.-.-.;.7.7.;.;.<.7.8.9.8.8.2.+._ T.XXOXOX.X .",
"0 } |. X X!.{ M F +.&.&.&.+.&.&.&.=.=.&.&.&.&.&.=.&.&.&.&.&.&.&.&.&.&.&.&.&.&.*.&.+.Z m } Q. X X!.{ ",
"4 L I.W.W.U.e k x Z Q Z Z Z Z Z S A S S Z S S S Z Z Z Q S S Z Z Z Z S S Z Z S S Z C z 7 d I.W.W.U.u ",
"3 t H.L.J.d 6 , O j j j j j l j z v v v z h j j j j j j j l z b v z j j j j j j j j O - t J L.J.s q ",
"3 t s H.H.p 6 , h j l l l l l l b C C C x z l l l l l l l l b C C C z l l l l l l h g , w a H.G.p q ",
"3 t G.H.H.p 6 < l N N B N N B N A G #.G V B N N N N N N N B F o.%.G B N B N N N N x h , q a H.H.p q ",
"3 t G.H.H.p 6 < l N B B B B B B A o.$.%.A B B B B B B B B B D %.$.G B B B B B B B N l , t a H.H.p q ",
"3 w a H.H.p 6 < l N B B B B B B A o.%.%.A B B B B B B B B B o.%.$.o.A B B B B B B N h , w a H.H.a q ",
"3 t a H.H.p 6 , g x N B B B B B A %.%.%.D B B B B B B B B B o.#.$.o.A B B B B B N l g , w a H.H.p q ",
"3 q a H.H.p 6 ; O h z N B B B B A #.$.Q A V B B B B B B B B D %.$.Q V B B B B N l g : = w H H.G.p q ",
"= q p p p w 5 * o O h z N x x x N S Q G V x x x x x x x x N C Q Q A N x x x x l g % o = 6 y p p y 6 ",
"* 3 q q q 5 = * o O O g h h h h z b b b j h h h h h h h h h z b b v h h h h h g ; $ $ * 4 5 q q 6 3 ",
"* * * = = * * $ o o % O ; : X O ; : 1 : ; ; ; ; % ; ; ; ; ; ; : 1 : ; ; ; ; ; % * $ $ $ * = = = * * ",
"                                                                                                    ",
"                                                                                                    ",
"                                                                                                    ",
"                                                                                                    ",
"                                                                                                    "
};
