/* XPM */
static char *d19a23bd3a9a45ddc01a637e89beee70A4Kfx11ag6grbtAk[] = {
/* columns rows colors chars-per-pixel */
"50 50 178 2 ",
"   c None",
".  c #262243",
"X  c #2C2342",
"o  c #27254C",
"O  c #2A254B",
"+  c #28294E",
"@  c #352443",
"#  c #3B2442",
"$  c #32254A",
"%  c #3E274A",
"&  c #272750",
"*  c #292753",
"=  c #272850",
"-  c #292A53",
";  c #282658",
":  c #2A2C5B",
">  c #332C5B",
",  c #293157",
"<  c #2B325C",
"1  c #2B2F62",
"2  c #342D65",
"3  c #2C3364",
"4  c #2D3B65",
"5  c #2E356B",
"6  c #2E3A6C",
"7  c #353064",
"8  c #3B3265",
"9  c #3D3866",
"0  c #37306D",
"q  c #3B306D",
"w  c #2F3971",
"e  c #3C3673",
"r  c #303C73",
"t  c #3F3873",
"y  c #3E357A",
"u  c #323E78",
"i  c #432542",
"p  c #4B2642",
"a  c #4C2943",
"s  c #44274A",
"d  c #452B4D",
"f  c #4D2A4B",
"g  c #522743",
"h  c #582742",
"j  c #552A44",
"k  c #5D2B45",
"l  c #522B4B",
"z  c #5C324C",
"x  c #5D3452",
"c  c #642C45",
"v  c #6B2D46",
"b  c #633047",
"n  c #6E3047",
"m  c #653249",
"M  c #6C3349",
"N  c #6E384C",
"B  c #73354A",
"V  c #78374B",
"C  c #753B4E",
"Z  c #7A3B4E",
"A  c #623753",
"S  c #6C3A53",
"D  c #703C53",
"F  c #7D3F51",
"G  c #443465",
"H  c #493666",
"J  c #493967",
"K  c #403771",
"L  c #443A73",
"P  c #40367A",
"I  c #413C7C",
"U  c #4A3F75",
"Y  c #2F406C",
"T  c #30436E",
"R  c #324475",
"E  c #324975",
"W  c #33437C",
"Q  c #344C7C",
"!  c #7E4052",
"~  c #494276",
"^  c #803F50",
"/  c #854454",
"(  c #884555",
")  c #8D4A59",
"_  c #924E5B",
"`  c #96515E",
"'  c #453E86",
"]  c #473F89",
"[  c #354581",
"{  c #374B85",
"}  c #374A88",
"|  c #394D8B",
" . c #375383",
".. c #385685",
"X. c #395887",
"o. c #3A538E",
"O. c #395988",
"+. c #3A5C8C",
"@. c #3C5393",
"#. c #3D5595",
"$. c #3C5392",
"%. c #3D5C95",
"&. c #3F5D9A",
"*. c #3F5D9B",
"=. c #3D6294",
"-. c #3F609B",
";. c #3F689A",
":. c #474484",
">. c #4A448C",
",. c #4F4D8D",
"<. c #484287",
"1. c #534C8C",
"2. c #514F91",
"3. c #545296",
"4. c #5B5591",
"5. c #56559B",
"6. c #58579C",
"7. c #59589D",
"8. c #605D94",
"9. c #40619E",
"0. c #41629E",
"q. c #406A9D",
"w. c #666396",
"e. c #67659B",
"r. c #736F9B",
"t. c #76729B",
"y. c #5D5EA1",
"u. c #4264A1",
"i. c #436CA2",
"p. c #456EA9",
"a. c #5F60A6",
"s. c #4472A6",
"d. c #4572A7",
"f. c #4571AA",
"g. c #4575A9",
"h. c #4776AE",
"j. c #4675AC",
"k. c #4873AF",
"l. c #4778AE",
"z. c #4876B0",
"x. c #497DB3",
"c. c #497BB4",
"v. c #6060A6",
"b. c #6366AB",
"n. c #6669AE",
"m. c #6A6CAD",
"M. c #6D6BA3",
"N. c #6E70AF",
"B. c #7471A5",
"V. c #7975A6",
"C. c #7574AD",
"Z. c #7F7DAF",
"A. c #676BB0",
"S. c #696DB1",
"D. c #6F71B0",
"F. c #7475B3",
"G. c #7B7BB5",
"H. c #847FAB",
"J. c #817FB0",
"K. c #4C81B9",
"L. c #4F89C3",
"P. c #8681AB",
"I. c #8984AB",
"U. c #8483B4",
"Y. c #8C8ABA",
"T. c #8887B6",
"R. c #928FBB",
"E. c #938FB5",
"W. c #9692B7",
"Q. c #9392BD",
"!. c #9E9ABD",
"~. c #9B97BC",
"^. c #9997C0",
"/. c #A29EC1",
"(. c #A5A2C2",
"). c #A9A6C5",
"_. c #ADA9C7",
"`. c #AEAAC8",
/* pixels */
"                                    - - - - - + . o = - , = , +                                     ",
"                                + , E X.O.O...E , , R  .X.X.X.E , *                                 ",
"                        o = : * , 6 ;.K.K.K.x.%.3 4 =.z.K.K.K.;.6 , ; : * o                         ",
"                    o 4  .X.E : : 6 %.d.k.j.p.o.3 3 O.p.j.j.s.=.6 : : R O. .4 o                     ",
"                  4 Q =.d.h.;.E : 3 [ o.@.#.@.[ < 1 [ @.$.#.o.[ 3 : R ;.h.d.=. .4                   ",
"                4 O.l.x.z.z.j.O.3 1 w [ | | | u : : u } | | [ w : 3 O.j.h.x.x.g.X.4                 ",
"            o < ..g.k.p.-.*.*.{ 3 ; : 6 r r r 5 : ; 5 w u r w 1 : 3 { &.&.-.p.z.d. .< +             ",
"          = : R i.j.*.&.$.@.| u 3 * = : 1 3 3 ; o o : 1 1 1 1 ; ; 3 R @.@.$.#.-.f.s.R - =           ",
"        = : , 6  .o.$.$.@.| W 5 ; o . O O O o . . . . O O + O o O - 5 W | @.@.@.o. .6 : : =         ",
"        4 E Q 4 5 u } | | W 6 : . . @ # # @ X X . . . @ @ @ @ @ X . , 5 W | | } u 6 4 Q E 4         ",
"      o Q i.l.%.6 3 r u w 6 ; . . X p h k h p @ . . @ p h k h p X . o * 5 w u w 3 6 =.g.i.Q o       ",
"      4 O.i.h.h.=.6 3 1 < ; o . . # k v B v k i . . i h v B n h # . . . : 1 1 3 Y =.g.z.i.X.4       ",
"    o Q =.u.-.p.s.Q , * * . @ X X a n ! / ^ n g @ X g n ^ / ^ n a X X X O o = , Q p.p.0.-.=.Q o     ",
"    * W %.&.#.*.q.Q - . . # p # @ k Z ) _ ) V j X X g Z ) _ _ Z k @ i p # O . - Q q.&.#.&.%.R ;     ",
"  o : 5 W | o.| [ 5 + . # g k p @ c / ` ` _ ! j X X j Z _ ` _ / k @ p h g # . + 5 W | | | [ 5 : O   ",
"  o : 3 5 w u w 5 : O # g c c p @ k / _ ` _ ! j @ X j / _ ` _ / c @ p c c g # O : 5 u u w 5 1 : =   ",
"    = : : 1 3 2 * o @ g c v c p # k / ` ` _ ! j X X j ! _ ` _ / k # p c v c g @ . - 3 5 1 : ; *     ",
"  o , : : : : = o . # c Z V v p @ k / _ ` _ ! j X X k ! _ ` _ / k # p n V V b # . . = * : , : : o   ",
"  * 4 W Q E 3 + . @ p B / ( C a # k / _ ` _ ! j X X k ! _ ` _ / k @ p C ( ( B g @ . = 4 E  .W 4 =   ",
"  = W ;.h.d.+.6 o @ c ^ _ ) Z a # k / ` ` _ ! j @ X j ! _ ` _ / c @ a C ) ) / k @ O 6 +.d.l.;.W =   ",
"  = Q u.z.z.p.Q - # b ( ` ) Z a @ k / ` ` ` ! j X X j ! _ ` ` / c @ a ! _ ` / m @ - Q s.c.l.i.E =   ",
"  = r o.9.u.q.Q , @ m / ` ) C a @ k ! _ ` ) ! j X X a ! _ ` _ / j @ a C ) _ / c @ - { u.0.9.o.6 =   ",
"  o 6 } @.#.o.R - X a C / ! m # X a ! / ) ! z i X X i N ! ) / N a X # z ! / D j O - R o.@.@.} 6 =   ",
"  + 5 } @.| | r = . $ f x z d + X $ d x ! x d + + X + d x x ! a $ O $ d x x l $ X = r } @.| } 0 =   ",
"  O 5 u W u u 5 + $ q t L L t e K K K L L L K P 9 e e t ~ ~ ~ L ~ ~ ~ ~ ~ L K 7 - = 5 u [ u u 3 O   ",
"  * : 5 5 5 5 : - q ,.7.7.6.6.6.y.6.6.6.6.6.5.y.7.7.7.7.7.M.t.V.H.I.I.I.V.e.6.,.q O : 3 5 5 5 3 *   ",
"  o ; * ; : * o O I y.n.n.n.n.n.b.n.S.m.n.n.A.A.A.A.m.n.D.U.Y.Y./.(.(.(.Q.G.b.y.~ * o & ; ; * * o   ",
"  + < T R E Y - * ' y.n.D.S.D.S.S.S.S.S.S.S.S.S.S.S.S.S.F.Y.Q.Q._.`.`.`.^.G.A.y.' - , T R R T < o   ",
"  + R ;.d.g.;.E : P 3.b.b.n.n.n.n.b.b.n.b.b.n.b.b.n.b.b.D.L.E.E././.(./.R.F.v.5.I : E q.g.f.0.R =   ",
"  + Q u.x.x.g.{ : y ] 3.y.5.y.6.y.y.5.y.y.5.y.5.6.6.y.5.a.M.r.H.H.H.I.P.V.v.3.] e : Q g.c.c.q.Q =   ",
"  = r $.9.9.%.R ; 2 P ' ] ' ' ' ] ' ] ] ] ] ] ] ] ] ' ' ] ] ] ] 1.1.1.1.>.<.' y 2 - W 9.0.9.$.r =   ",
"  = 6 } @.#.| w * O 2 q q q 0 0 0 0 q q q q 0 q q q 0 q G P G G 2 0 0 q q G G 2 * = w } $.#.{ 6 =   ",
"  * 6 } #.@.| w * . $ s l f % X X $ s a l a s $ o o $ % a l f s $ O $ % a l s $ X * w | @.@.[ 0 o   ",
"  o 3 u [ [ u 6 O $ p k v c h # X i k v v c g i X X # h v v c k i X # h v v k p X o 5 W [ [ W 5 *   ",
"  * 1 5 6 5 5 : o @ h n V V c p @ j n V ^ V c g X X g c V F Z v h @ i c B V n h @ O : 5 5 5 3 1 O   ",
"  O * ; ; ; = o . @ c Z ( ^ n p @ k C / ) ( V g X X h B ( ) ( V h # g n / ( Z c @ . O ; ; ; ; : o   ",
"  o , 4 Y Y 4 + . # b / ` ) V a @ k / ` ` ) F j X X j F _ _ _ / k @ a V ) ` ( b @ . , 4 6 Y 4 < +   ",
"  + R =.q.i.q.T + @ m ( ` _ F a @ c / ` ` _ ! j X @ j F _ ` ` / k # f C _ ` ( m @ + Y =.i.i.=.T =   ",
"  = Q s.K.c.z.Q - @ M ( _ _ F p # k / ` ` ` ! j X @ h F _ ` _ / k @ f Z _ ` / m @ , { l.K.K.s.Q =   ",
"  = r $.q.u.9.u - @ c ( _ _ D p @ j / ` ` ) ! j X X h F _ ` _ ( k # a Z ) _ / b @ + R %.0.-.%.w =   ",
"  * 6 | $.#.$.w = @ j ! ) / N i @ g C ) ` ) C p X X p D ) _ ) V a @ i M ( ) ! j @ - w o.#.@.} 6 o   ",
"  * 6 } @.$.| w = O # z S N f O O $ j D ! S l $ . . $ l S F D z @ O X f S S z # X - w o.$.@.} 6 *   ",
"  * 6 [ $.$.o.w = + > G G G 8 7 2 8 8 H H G 8 7 2 7 2 G G J U H 9 9 9 J G G 8 > O - w | @.$.} 6 +   ",
"  o 5 W [ } W 0 - 7 :.2.2.2.2.1.2.2.2.2.2.2.2.2.2.2.2.2.3.8.8.8.t.t.t.t.e.4.,.:.7 - 6 [ [ } u 5 *   ",
"  o 3 6 w w 6 1 * t 6.a.b.b.b.b.b.b.b.A.b.n.b.b.b.b.n.b.n.J.J.J.~.!.!.!.T.C.v.y.I - 3 6 w w w 1 +   ",
"  o ; : : : ; & * :.a.S.S.D.S.S.S.S.S.S.S.S.S.S.S.S.S.S.D.^.^.^.).`.`.).^.G.A.y.' = o ; : ; ; : o   ",
"    : < < 3 < + - I y.b.A.S.S.S.A.A.A.A.S.A.A.A.A.A.A.A.D.J.Y.^.).).).).~.G.v.6.I + + < 4 3 3 *     ",
"  = 6 ..=.=.O.T - y >.6.a.a.y.a.v.v.v.v.v.v.v.v.v.v.v.a.b.C.J.J.W.W.W.W.U.m.6.,.P - 4 X.=.=.O.6 +   ",
"  = Q l.L.L.x...< e ' ] ] >.] >.>.>.>.>.] ] ] >.>.] >.>.>.2.2.1.4.4.4.4.1.,.' ' e :  .c.L.L.l.Q -   ",
"  = r %.0.u.&.R * * 2 y P P y y y y y P ' y P P y y y y P P P P y y y I I P P 2 * * R 9.0.9.$.r =   "
};
