/* XPM */
static char *_29c6e48040c4f17d1ca3bed942af883lljtx5yjDeoGomgQ[] = {
/* columns rows colors chars-per-pixel */
"50 50 2 1 ",
"  c #35355F",
". c #424C7D",
/* pixels */
"..................................................",
"..................................................",
"...                    ...........................",
"..                      ..........................",
"..                      ..........................",
"..                      ..........................",
"..                      ..........................",
"..                      ..........................",
"..                      ..........................",
"..                      ..........................",
"..                      ..........................",
"..                      ..........................",
"...                    ...........................",
"..................................................",
"..................................................",
"..................................................",
"..................................................",
"..................................................",
"..................................................",
"..................................................",
"..................................................",
"......................                    ........",
".....................                      .......",
".....................                      .......",
".....................                      .......",
".....................                      .......",
".....................                      .......",
".....................                      .......",
".....................                      .......",
".....................                      .......",
".....................                      .......",
"......................                    ........",
"..................................................",
"..................................................",
"..................................................",
"..........                    ....................",
".........                      ...................",
".........                      ...................",
".........                      ...................",
".........                      ...................",
".........                      ...................",
".........                      ...................",
".........                      ...................",
".........                      ...................",
".........                      ...................",
"..........                    ....................",
"..................................................",
"..................................................",
"..................................................",
".................................................."
};
