/* XPM */
static char *_8192d1029264923b9a56e00589da66ecmj7EFaqj3dxAwlW[] = {
/* columns rows colors chars-per-pixel */
"50 50 129 2 ",
"   c None",
".  c #563E39",
"X  c #5C433B",
"o  c #64453A",
"O  c #6A4C3D",
"+  c #744C36",
"@  c #7D4F35",
"#  c #794F38",
"$  c #7B5139",
"%  c #735041",
"&  c #7B5A45",
"*  c #815235",
"=  c #885737",
"-  c #82553A",
";  c #84593E",
":  c #8C5B3A",
">  c #935C36",
",  c #925E3C",
"<  c #95613C",
"1  c #9D653D",
"2  c #97683D",
"3  c #9A6B3F",
"4  c #A0663D",
"5  c #A3703F",
"6  c #AA733C",
"7  c #B0773E",
"8  c #9F1640",
"9  c #A12343",
"0  c #875B40",
"q  c #AA5142",
"w  c #AA5C43",
"e  c #89634A",
"r  c #956443",
"t  c #9A6F46",
"y  c #926849",
"u  c #9A7148",
"i  c #917358",
"p  c #A06A43",
"a  c #AC7540",
"s  c #AB7B4B",
"d  c #B07740",
"f  c #B17941",
"g  c #B07B4E",
"h  c #8C6C62",
"j  c #8F7875",
"k  c #A87C62",
"l  c #C08E3E",
"z  c #DEC637",
"x  c #DBC038",
"c  c #E0C72B",
"v  c #B48253",
"b  c #9F8A75",
"n  c #A28460",
"m  c #A98865",
"M  c #A58469",
"N  c #A78B6D",
"B  c #AE8C68",
"V  c #B18A63",
"C  c #B88C63",
"Z  c #B0876D",
"A  c #BE8069",
"S  c #B18D68",
"D  c #A9936E",
"F  c #A08B76",
"G  c #A28F79",
"H  c #AC9A76",
"J  c #A5927C",
"K  c #BA9571",
"L  c #B89875",
"P  c #C49B70",
"I  c #C4A77D",
"U  c #CAA47C",
"Y  c #CBBC79",
"T  c #E1C459",
"R  c #D8CB74",
"E  c #877F8F",
"W  c #807E90",
"Q  c #7E97C2",
"!  c #7F98C2",
"~  c #96858F",
"^  c #8E8390",
"/  c #A69B87",
"(  c #B4A188",
")  c #B2A791",
"_  c #9D9EAD",
"`  c #8598BE",
"'  c #8FA0BF",
"]  c #A6A2AE",
"[  c #ACA6AE",
"{  c #A7ADAF",
"}  c #B0B0A4",
"|  c #A0A9B5",
" . c #ADB7BF",
".. c #C0AB86",
"X. c #CFBC80",
"o. c #D8B081",
"O. c #DCB58A",
"+. c #DDB98D",
"@. c #E3BF95",
"#. c #DDD492",
"$. c #E3C281",
"%. c #E4C093",
"&. c #C7CAA7",
"*. c #C8C9A7",
"=. c #C9CAA9",
"-. c #CBD2AC",
";. c #D3D2AE",
":. c #CCCAB2",
">. c #CED5B1",
",. c #D1D9B5",
"<. c #D3D3BB",
"1. c #D3DBB9",
"2. c #839BC3",
"3. c #8EA3C5",
"4. c #91A4C5",
"5. c #97A9C7",
"6. c #9AABC7",
"7. c #9BACC9",
"8. c #ABB7CB",
"9. c #ACB9CD",
"0. c #B4C1CA",
"q. c #D7D7C0",
"w. c #D7D9C2",
"e. c #D9DBC3",
"r. c #DCE1C6",
"t. c #DEE2CA",
"y. c #E4E7CF",
"u. c #E0E4CC",
"i. c #E4E8CF",
/* pixels */
"                                                                                                    ",
"                                                                                                    ",
"                                                                                                    ",
"                                                                                                    ",
"                                                                                                    ",
"                                                                                                    ",
"                                                                                                    ",
"                                                                                                    ",
"                                                                                                    ",
"                                            - - - - -                                               ",
"                                          1 , , , , = -                                             ",
"                                          , > : : : - -                                             ",
"                                          y V K K V r ; <                                           ",
"                                          i o.%.O.S p = 1                                           ",
"                                          & B L m % < = : 1                                         ",
"                                          - o . . X 1 * - 1                                         ",
"                                          ; $ X X $ r J e >                                         ",
"                                            @ O $ , e <.) /                                         ",
"                                            b 0 < ; J e.t.u.                                        ",
"                                          i.<.e 0 G w.u.u.u.u.                                      ",
"                                        i.i.w.F J e.u.i.u.u.u.u.                                    ",
"                                        u.i.u.t.t.u.u.i.u.u.u.w.<.                                  ",
"                                        1.u.u.u.u.t.u.u.1.t.e.( M                                   ",
"                                        r.,.1.u.t.,.,.,.r.e./ :.e.t.                                ",
"                                      -.1.t.t.u.u.t.u.e.,.,.w.1.,.r.                                ",
"                                      >.,.t.u.u.u.u.u.,.;.  u.t.t.t.u.          z                   ",
"                                    D -.>.1.u.u.u.t.,.-.      t.t.t.r.        x   z                 ",
"                                    t H -.  u.e.e.>.F n       ,.,...C v       l z                   ",
"                                    3 u n   N N N N :.&.        m s 7 a     9 q                     ",
"                                    t 2 N e.<.<.<.<.t.,.,.      2 t 6 f w 9 9                       ",
"                                    2 n &.<.J F b J e.r.,.-.      3 3 P A 8                         ",
"                                    I &.<.b - * @ ; J e.r.,.>.      U +.O.                          ",
"                                    ;.<.F * $ $ - - - J 1.r.,.R   c $.%.%.%.                        ",
"                                    <.G - < - + # - - - / e.e.#.| { X.$.@.                          ",
"                                    J , , : - $ + $ , = $ J <.0.3.4.} T                             ",
"                                  = > 4 1 < , - $ # < < = ^  .7.4.4.Y                               ",
"                                  < 4 4 1 , = $ # # 1 1 ^ 3.3.4.7.                                  ",
"                                4 4 1 4 1 : $ + + + ; ~ ` 3.4.7.9.                                  ",
"                                1 4 1 , , : $ + + % W ` 2.3.7._ j                                   ",
"                                < : = $ $ - +       2.2.3.6.] h *                                   ",
"                                  < : : : ;       2.2.3.6.[ k < r                                   ",
"                                  a 6 d f       2.Q 3.6.8.Z 6 7 d                                   ",
"                                    3 d 7     3.2.3.6.8.    3 6 d                                   ",
"                                    5 d f     ! 3.6.9.      t a d d                                 ",
"                                    5 d 7     4.6.9.        3 a d d                                 ",
"                                  5 d d 7   6.7.8.          3 a d d                                 ",
"                                5 d d 7 g   9.9.          3 a d d d                                 ",
"                              d d d d 7   9.9.          d d a d d                                   ",
"                                                                                                    ",
"                                                                                                    "
};
